<svg width="83" height="11" viewBox="0 0 83 11" fill="none" xmlns="http://www.w3.org/2000/svg">
<path d="M6.864 5.704H8.34V9.052C7.908 9.396 7.404 9.66 6.828 9.844C6.252 10.028 5.66 10.12 5.052 10.12C4.196 10.12 3.424 9.936 2.736 9.568C2.048 9.192 1.508 8.676 1.116 8.02C0.724 7.364 0.528 6.624 0.528 5.8C0.528 4.976 0.724 4.236 1.116 3.58C1.508 2.924 2.048 2.412 2.736 2.044C3.432 1.668 4.212 1.48 5.076 1.48C5.78 1.48 6.42 1.596 6.996 1.828C7.572 2.06 8.056 2.4 8.448 2.848L7.464 3.808C6.824 3.168 6.052 2.848 5.148 2.848C4.556 2.848 4.028 2.972 3.564 3.22C3.108 3.468 2.748 3.816 2.484 4.264C2.228 4.712 2.1 5.224 2.1 5.8C2.1 6.36 2.228 6.864 2.484 7.312C2.748 7.76 3.108 8.112 3.564 8.368C4.028 8.624 4.552 8.752 5.136 8.752C5.792 8.752 6.368 8.608 6.864 8.32V5.704ZM16.2775 6.832C16.2775 6.936 16.2695 7.084 16.2535 7.276H11.2255C11.3135 7.748 11.5415 8.124 11.9095 8.404C12.2855 8.676 12.7495 8.812 13.3015 8.812C14.0055 8.812 14.5855 8.58 15.0415 8.116L15.8455 9.04C15.5575 9.384 15.1935 9.644 14.7535 9.82C14.3135 9.996 13.8175 10.084 13.2655 10.084C12.5615 10.084 11.9415 9.944 11.4055 9.664C10.8695 9.384 10.4535 8.996 10.1575 8.5C9.86953 7.996 9.72553 7.428 9.72553 6.796C9.72553 6.172 9.86553 5.612 10.1455 5.116C10.4335 4.612 10.8295 4.22 11.3335 3.94C11.8375 3.66 12.4055 3.52 13.0375 3.52C13.6615 3.52 14.2175 3.66 14.7055 3.94C15.2015 4.212 15.5855 4.6 15.8575 5.104C16.1375 5.6 16.2775 6.176 16.2775 6.832ZM13.0375 4.72C12.5575 4.72 12.1495 4.864 11.8135 5.152C11.4855 5.432 11.2855 5.808 11.2135 6.28H14.8495C14.7855 5.816 14.5895 5.44 14.2615 5.152C13.9335 4.864 13.5255 4.72 13.0375 4.72ZM21.5704 9.652C21.3944 9.796 21.1784 9.904 20.9224 9.976C20.6744 10.048 20.4104 10.084 20.1304 10.084C19.4264 10.084 18.8824 9.9 18.4984 9.532C18.1144 9.164 17.9224 8.628 17.9224 7.924V4.84H16.8664V3.64H17.9224V2.176H19.4224V3.64H21.1384V4.84H19.4224V7.888C19.4224 8.2 19.4984 8.44 19.6504 8.608C19.8024 8.768 20.0224 8.848 20.3104 8.848C20.6464 8.848 20.9264 8.76 21.1504 8.584L21.5704 9.652Z" fill="black"/>
<path d="M29.675 1.6C30.419 1.6 31.063 1.724 31.607 1.972C32.159 2.22 32.583 2.572 32.879 3.028C33.175 3.484 33.323 4.024 33.323 4.648C33.323 5.264 33.175 5.804 32.879 6.268C32.583 6.724 32.159 7.076 31.607 7.324C31.063 7.564 30.419 7.684 29.675 7.684H27.983V10H26.039V1.6H29.675ZM29.567 6.1C30.151 6.1 30.595 5.976 30.899 5.728C31.203 5.472 31.355 5.112 31.355 4.648C31.355 4.176 31.203 3.816 30.899 3.568C30.595 3.312 30.151 3.184 29.567 3.184H27.983V6.1H29.567ZM36.3668 4.396C36.5908 4.084 36.8908 3.848 37.2668 3.688C37.6508 3.528 38.0908 3.448 38.5868 3.448V5.176C38.3788 5.16 38.2388 5.152 38.1668 5.152C37.6308 5.152 37.2108 5.304 36.9068 5.608C36.6028 5.904 36.4508 6.352 36.4508 6.952V10H34.5788V3.544H36.3668V4.396ZM45.9653 6.796C45.9653 6.82 45.9533 6.988 45.9293 7.3H41.0453C41.1333 7.7 41.3413 8.016 41.6693 8.248C41.9973 8.48 42.4053 8.596 42.8933 8.596C43.2293 8.596 43.5253 8.548 43.7813 8.452C44.0453 8.348 44.2893 8.188 44.5133 7.972L45.5093 9.052C44.9013 9.748 44.0133 10.096 42.8453 10.096C42.1173 10.096 41.4733 9.956 40.9133 9.676C40.3533 9.388 39.9213 8.992 39.6173 8.488C39.3133 7.984 39.1613 7.412 39.1613 6.772C39.1613 6.14 39.3093 5.572 39.6053 5.068C39.9093 4.556 40.3213 4.16 40.8413 3.88C41.3693 3.592 41.9573 3.448 42.6053 3.448C43.2373 3.448 43.8093 3.584 44.3213 3.856C44.8333 4.128 45.2333 4.52 45.5213 5.032C45.8173 5.536 45.9653 6.124 45.9653 6.796ZM42.6173 4.864C42.1933 4.864 41.8373 4.984 41.5493 5.224C41.2613 5.464 41.0853 5.792 41.0213 6.208H44.2013C44.1373 5.8 43.9613 5.476 43.6733 5.236C43.3853 4.988 43.0333 4.864 42.6173 4.864ZM55.4797 3.448C56.2877 3.448 56.9277 3.688 57.3997 4.168C57.8797 4.64 58.1197 5.352 58.1197 6.304V10H56.2477V6.592C56.2477 6.08 56.1397 5.7 55.9237 5.452C55.7157 5.196 55.4157 5.068 55.0237 5.068C54.5837 5.068 54.2357 5.212 53.9797 5.5C53.7237 5.78 53.5957 6.2 53.5957 6.76V10H51.7237V6.592C51.7237 5.576 51.3157 5.068 50.4997 5.068C50.0677 5.068 49.7237 5.212 49.4677 5.5C49.2117 5.78 49.0837 6.2 49.0837 6.76V10H47.2117V3.544H48.9997V4.288C49.2397 4.016 49.5317 3.808 49.8757 3.664C50.2277 3.52 50.6117 3.448 51.0277 3.448C51.4837 3.448 51.8957 3.54 52.2637 3.724C52.6317 3.9 52.9277 4.16 53.1517 4.504C53.4157 4.168 53.7477 3.908 54.1477 3.724C54.5557 3.54 54.9997 3.448 55.4797 3.448ZM59.7976 3.544H61.6696V10H59.7976V3.544ZM60.7336 2.644C60.3896 2.644 60.1096 2.544 59.8936 2.344C59.6776 2.144 59.5696 1.896 59.5696 1.6C59.5696 1.304 59.6776 1.056 59.8936 0.856C60.1096 0.655999 60.3896 0.555999 60.7336 0.555999C61.0776 0.555999 61.3576 0.651999 61.5736 0.844C61.7896 1.036 61.8976 1.276 61.8976 1.564C61.8976 1.876 61.7896 2.136 61.5736 2.344C61.3576 2.544 61.0776 2.644 60.7336 2.644ZM69.911 3.544V10H68.135V9.232C67.887 9.512 67.591 9.728 67.247 9.88C66.903 10.024 66.531 10.096 66.131 10.096C65.283 10.096 64.611 9.852 64.115 9.364C63.619 8.876 63.371 8.152 63.371 7.192V3.544H65.243V6.916C65.243 7.956 65.679 8.476 66.551 8.476C66.999 8.476 67.359 8.332 67.631 8.044C67.903 7.748 68.039 7.312 68.039 6.736V3.544H69.911ZM79.9133 3.448C80.7213 3.448 81.3613 3.688 81.8333 4.168C82.3133 4.64 82.5533 5.352 82.5533 6.304V10H80.6813V6.592C80.6813 6.08 80.5733 5.7 80.3573 5.452C80.1493 5.196 79.8493 5.068 79.4573 5.068C79.0173 5.068 78.6693 5.212 78.4133 5.5C78.1573 5.78 78.0293 6.2 78.0293 6.76V10H76.1573V6.592C76.1573 5.576 75.7493 5.068 74.9333 5.068C74.5013 5.068 74.1573 5.212 73.9013 5.5C73.6453 5.78 73.5173 6.2 73.5173 6.76V10H71.6453V3.544H73.4333V4.288C73.6733 4.016 73.9653 3.808 74.3092 3.664C74.6613 3.52 75.0453 3.448 75.4613 3.448C75.9173 3.448 76.3293 3.54 76.6973 3.724C77.0653 3.9 77.3613 4.16 77.5853 4.504C77.8493 4.168 78.1813 3.908 78.5813 3.724C78.9893 3.54 79.4333 3.448 79.9133 3.448Z" fill="url(#paint0_linear_93_185)"/>
<defs>
<linearGradient id="paint0_linear_93_185" x1="-38.2742" y1="-2" x2="73.1613" y2="-2" gradientUnits="userSpaceOnUse">
<stop stop-color="#FBC100"/>
<stop offset="1" stop-color="#F15132"/>
</linearGradient>
</defs>
</svg>
